<?xml version="1.0" encoding="iso-8859-1"?>
<!-- Generator: Adobe Illustrator 19.0.0, SVG Export Plug-In . SVG Version: 6.00 Build 0)  -->
<svg version="1.1" id="Capa_1" xmlns="http://www.w3.org/2000/svg" xmlns:xlink="http://www.w3.org/1999/xlink" x="0px" y="0px"
	 viewBox="0 0 479.992 479.992" style="enable-background:new 0 0 479.992 479.992;" xml:space="preserve">
<g>
	<g>
		<path d="M463.996,309.468v-1.472c-0.155-120.526-95.555-219.371-216-223.8v-24.2h56c4.418,0,8-3.582,8-8v-32c0-4.418-3.582-8-8-8
			h-128c-4.418,0-8,3.582-8,8v32c0,4.418,3.582,8,8,8h56v24.2c-120.445,4.429-215.845,103.274-216,223.8v1.472
			c-12.473,4.393-19.023,18.066-14.629,30.539c3.38,9.596,12.455,16.009,22.629,15.989h432
			c13.224,0.025,23.964-10.675,23.989-23.899C480.005,321.923,473.592,312.848,463.996,309.468z M183.996,43.996v-16h112v16H183.996
			z M239.996,99.996c114.822,0.128,207.872,93.178,208,208h-416C32.124,193.174,125.174,100.124,239.996,99.996z M455.996,339.996
			h-432c-4.418,0-8-3.582-8-8s3.582-8,8-8h432c4.418,0,8,3.582,8,8S460.414,339.996,455.996,339.996z"/>
	</g>
</g>
<g>
	<g>
		<path d="M430.399,282.977c-0.001-0.007-0.002-0.014-0.003-0.021c-12.754-95.453-94.099-166.783-190.4-166.96c-4.418,0-8,3.582-8,8
			c0,4.418,3.582,8,8,8c88.267,0.167,162.823,65.55,174.512,153.04c0.522,3.981,3.913,6.958,7.928,6.96
			c0.35-0.002,0.7-0.023,1.048-0.064C427.866,291.368,430.962,287.359,430.399,282.977z"/>
	</g>
</g>
<g>
	<g>
		<path d="M474.518,372.406c-0.813-0.271-1.665-0.409-2.522-0.41h-464c-4.418,0.003-7.997,3.588-7.994,8.006
			c0.001,0.857,0.139,1.709,0.41,2.522l8.704,26.128c4.82,14.456,17.456,24.903,32.56,26.92l3.648,14.272
			c2.786,10.738,12.506,18.215,23.6,18.152h342.144c11.091,0.064,20.811-7.409,23.6-18.144l3.648-14.28
			c15.108-2.019,27.746-12.469,32.568-26.928l8.696-26.12C480.976,378.332,478.71,373.802,474.518,372.406z M419.196,445.9
			c-0.988,3.658-4.34,6.172-8.128,6.096H68.924c-3.79,0.075-7.143-2.443-8.128-6.104l-2.504-9.896H421.7L419.196,445.9z
			 M455.708,403.588c-3.268,9.802-12.444,16.412-22.776,16.408H47.996H47.06c-10.332,0.004-19.508-6.606-22.776-16.408L19.1,387.996
			h441.792L455.708,403.588z"/>
	</g>
</g>
<g>
	<g>
		<path d="M208.156,115.996h-0.08c-4.44,0.022-8.022,3.64-8,8.08c0.022,4.44,3.64,8.022,8.08,8s8.022-3.64,8-8.08
			C216.134,119.587,212.565,116.018,208.156,115.996z"/>
	</g>
</g>
<g>
</g>
<g>
</g>
<g>
</g>
<g>
</g>
<g>
</g>
<g>
</g>
<g>
</g>
<g>
</g>
<g>
</g>
<g>
</g>
<g>
</g>
<g>
</g>
<g>
</g>
<g>
</g>
<g>
</g>
</svg>
